<svg xmlns="http://www.w3.org/2000/svg" version="1.1" xmlns:xlink="http://www.w3.org/1999/xlink" xmlns:svgjs="http://svgjs.com/svgjs" width="100" height="100"><svg width="100" height="100" viewBox="0 0 100 100" fill="none" xmlns="http://www.w3.org/2000/svg">
<path d="M14.352 74C13.712 74 13.2 73.8293 12.816 73.488C12.4747 73.104 12.24 72.6347 12.112 72.08L4.496 31.056C4.496 30.928 4.47467 30.8213 4.432 30.736C4.432 30.6507 4.432 30.5867 4.432 30.544C4.432 30.16 4.56 29.84 4.816 29.584C5.11467 29.328 5.43467 29.2 5.776 29.2H11.408C12.4747 29.2 13.072 29.6267 13.2 30.48L18.512 59.472L24.272 40.72C24.4 40.3787 24.6133 40.0373 24.912 39.696C25.2533 39.312 25.744 39.12 26.384 39.12H29.84C30.5227 39.12 31.0133 39.312 31.312 39.696C31.6107 40.0373 31.8027 40.3787 31.888 40.72L37.712 59.408L43.024 30.48C43.152 29.6267 43.7493 29.2 44.816 29.2H50.448C50.7893 29.2 51.088 29.328 51.344 29.584C51.6 29.84 51.728 30.16 51.728 30.544C51.728 30.5867 51.728 30.6507 51.728 30.736C51.728 30.8213 51.7067 30.928 51.664 31.056L44.048 72.08C43.9627 72.6347 43.728 73.104 43.344 73.488C42.96 73.8293 42.448 74 41.808 74H37.52C36.88 74 36.368 73.8293 35.984 73.488C35.6427 73.1467 35.408 72.784 35.28 72.4L28.112 51.024L20.944 72.4C20.7733 72.784 20.5173 73.1467 20.176 73.488C19.8347 73.8293 19.3227 74 18.64 74H14.352ZM58.282 74C57.642 74 57.13 73.8293 56.746 73.488C56.4047 73.104 56.17 72.6347 56.042 72.08L48.426 31.056C48.426 30.928 48.4047 30.8213 48.362 30.736C48.362 30.6507 48.362 30.5867 48.362 30.544C48.362 30.16 48.49 29.84 48.746 29.584C49.0447 29.328 49.3647 29.2 49.706 29.2H55.338C56.4047 29.2 57.002 29.6267 57.13 30.48L62.442 59.472L68.202 40.72C68.33 40.3787 68.5433 40.0373 68.842 39.696C69.1833 39.312 69.674 39.12 70.314 39.12H73.77C74.4527 39.12 74.9433 39.312 75.242 39.696C75.5407 40.0373 75.7327 40.3787 75.818 40.72L81.642 59.408L86.954 30.48C87.082 29.6267 87.6793 29.2 88.746 29.2H94.378C94.7193 29.2 95.018 29.328 95.274 29.584C95.53 29.84 95.658 30.16 95.658 30.544C95.658 30.5867 95.658 30.6507 95.658 30.736C95.658 30.8213 95.6367 30.928 95.594 31.056L87.978 72.08C87.8927 72.6347 87.658 73.104 87.274 73.488C86.89 73.8293 86.378 74 85.738 74H81.45C80.81 74 80.298 73.8293 79.914 73.488C79.5727 73.1467 79.338 72.784 79.21 72.4L72.042 51.024L64.874 72.4C64.7033 72.784 64.4473 73.1467 64.106 73.488C63.7647 73.8293 63.2527 74 62.57 74H58.282Z" fill="black"></path>
</svg><style>@media (prefers-color-scheme: light) { :root { filter: none; } }
@media (prefers-color-scheme: dark) { :root { filter: invert(100%); } }
</style></svg>